<svg width="27" height="29" viewBox="0 0 27 29" fill="none" xmlns="http://www.w3.org/2000/svg">
<path d="M4.16663 16.6667L2.99532 15.7296L2.24569 16.6667L2.99532 17.6037L4.16663 16.6667ZM25 18.1667C25.8284 18.1667 26.5 17.4951 26.5 16.6667C26.5 15.8382 25.8284 15.1667 25 15.1667V16.6667V18.1667ZM12.5 6.25L11.3287 5.31296L2.99532 15.7296L4.16663 16.6667L5.33793 17.6037L13.6713 7.18704L12.5 6.25ZM4.16663 16.6667L2.99532 17.6037L11.3287 28.0204L12.5 27.0833L13.6713 26.1463L5.33793 15.7296L4.16663 16.6667ZM4.16663 16.6667V18.1667H25V16.6667V15.1667H4.16663V16.6667Z" fill="white"/>
</svg>
